# xmcd
#
# Track frame offsets: 
#        150
#        12047
#        22128
#        30809
#        42093
#        53304
#        65078
#        76973
#        87343
#        96213
#        104263
#        116129
#        126956
#        137168
#        147844
#        156779
#
# Disc length: 2240 seconds
#
# Revision: 1
# Processed by: cddbd v1.5.2PL0 Copyright (c) Steve Scherf et al.
# Submitted via: ExactAudioCopyFreeDBPlugin 1.0
#
DISCID=ca08be10
DTITLE=Barbara Lynn - The Jamie Singles Collection, 1962-1965
DYEAR=2008
DGENRE=Rhythm and Blues
TTITLE0=You'll Lose a Good Thing
TTITLE1=Lonely Heartache
TTITLE2=Second Fiddle Girl
TTITLE3=Letter to Mommy and Daddy
TTITLE4=I'm Sorry I Met You
TTITLE5=You're Gonna Need Me
TTITLE6=Don't Be Cruel
TTITLE7=You Can't Be Satisfied
TTITLE8=To Love or Not to Love
TTITLE9=Promises
TTITLE10=(I Cried At) Laura's Wedding
TTITLE11=You Better Stop
TTITLE12=Dedicate the Blues to Me
TTITLE13=Everybody Loves Somebody
TTITLE14=Money
TTITLE15=Jealous Love
EXTD=01 You'll Lose A Good Thing\n02 Lonely Heartache\n03 Second Fiddl
EXTD=e Girl\n04 Letter to Mommy and Daddy\n05 I'm Sorry I Met You\n06 
EXTD=You're Gonna Need Me\n07 Don't Be Cruel\n08 You Can't Be Satisfie
EXTD=d\n09 To Love or Not to Love\n10 Promises\n11 (I Cried At) Laura'
EXTD=s Wedding\n12 You Better Stop\n13 Dedicate The Blues to Me\n14 Ev
EXTD=erybody Loves Somebody\n15 Money\n16 Jealous Love
EXTT0=
EXTT1=
EXTT2=
EXTT3=
EXTT4=
EXTT5=
EXTT6=
EXTT7=
EXTT8=
EXTT9=
EXTT10=
EXTT11=
EXTT12=
EXTT13=
EXTT14=
EXTT15=
PLAYORDER=
